<svg xmlns="http://www.w3.org/2000/svg" viewBox="0 0 900 290" width="900" height="290">
<defs>
<linearGradient id="sky" x1="0" y1="0" x2="0" y2="1"><stop offset="0" stop-color="#fdf6f9"/><stop offset=".6" stop-color="#fbe4ec"/><stop offset="1" stop-color="#ece3f6"/></linearGradient>
<linearGradient id="sun" x1="0" y1="0" x2="0" y2="1"><stop offset="0" stop-color="#ffd6c9"/><stop offset="1" stop-color="#f9b9cc"/></linearGradient>
<clipPath id="frame"><rect width="900" height="290" rx="20"/></clipPath>
<clipPath id="above"><rect width="900" height="258"/></clipPath>
<style>
.name{font-family:Georgia,"Times New Roman",serif;font-style:italic;font-size:36px;fill:#6b4a5e}
.sub,.cap,.lab,.lg,.num,.small{font-family:"Segoe UI",-apple-system,Helvetica,Arial,sans-serif}
.sub{font-size:13px;fill:#9a7a8c;letter-spacing:3px}
.cap{font-size:13px;fill:#b07c95}
.small{font-size:12px;fill:#9a7a8c}
.lab{font-size:11px;fill:#a88a9b;letter-spacing:.5px}
.lg{font-size:11px;fill:#7d6272}
.num{font-size:26px;font-weight:600;fill:#6b4a5e}
.dino{fill:#8fd3c1}
.blush{fill:#f4a7bb}
.world{animation:scroll 9s linear infinite}
@keyframes scroll{from{transform:translateX(0)}to{transform:translateX(-900px)}}
.jumper{animation:jump 9s linear infinite}
@keyframes jump{0%{transform:translateY(0)}4.66%{transform:translateY(0)}4.67%{transform:translateY(0);animation-timing-function:ease-out}7.78%{transform:translateY(-54px);animation-timing-function:ease-in}10.89%{transform:translateY(0)}37.99%{transform:translateY(0)}38.00%{transform:translateY(0);animation-timing-function:ease-out}41.11%{transform:translateY(-54px);animation-timing-function:ease-in}44.22%{transform:translateY(0)}71.32%{transform:translateY(0)}71.33%{transform:translateY(0);animation-timing-function:ease-out}74.44%{transform:translateY(-54px);animation-timing-function:ease-in}77.56%{transform:translateY(0)}100%{transform:translateY(0)}}
.legA{animation:legA .3s steps(1) infinite}
.legB{animation:legB .3s steps(1) infinite}
@keyframes legA{0%{opacity:1}50%{opacity:0}}
@keyframes legB{0%{opacity:0}50%{opacity:1}}
.float{opacity:0;animation:float 4.5s ease-out infinite}
@keyframes float{0%{opacity:0;transform:translate(0,0)}15%{opacity:1}100%{opacity:0;transform:translate(14px,-70px)}}
.drift1{animation:drift 60s linear infinite}
.drift2{animation:drift 90s linear infinite;animation-delay:-40s}
@keyframes drift{from{transform:translateX(0)}to{transform:translateX(-1100px)}}
.beat{animation:beat 1.6s ease-in-out infinite}
@keyframes beat{0%,100%{opacity:1}15%{opacity:.45}30%{opacity:1}}
</style>
</defs>
<g clip-path="url(#frame)">
<rect width="900" height="290" fill="url(#sky)"/>
<g clip-path="url(#above)"><circle cx="760" cy="276" r="78" fill="url(#sun)" opacity=".75"/></g>
<g class="drift1"><g transform="translate(1000,46) scale(1)" fill="#ffffff" opacity=".75"><ellipse cx="0" cy="0" rx="34" ry="12"/><ellipse cx="-12" cy="-8" rx="14" ry="11"/><ellipse cx="10" cy="-10" rx="18" ry="14"/></g></g><g class="drift2"><g transform="translate(1150,120) scale(0.7)" fill="#ffffff" opacity=".75"><ellipse cx="0" cy="0" rx="34" ry="12"/><ellipse cx="-12" cy="-8" rx="14" ry="11"/><ellipse cx="10" cy="-10" rx="18" ry="14"/></g></g>
<line x1="24" y1="258" x2="876" y2="258" stroke="#e7b3c4" stroke-width="1.5" stroke-linecap="round"/>

<text class="name" x="40" y="66">Ayaz Ahmad</text>
<text class="sub" x="42" y="94">PYTHON BACKEND ENGINEER</text>
<text class="cap" x="42" y="120">building calm, reliable backends since 2022 <tspan class="beat" fill="#f4a7bb">&#9829;</tspan></text>
<text class="small" x="42" y="146">Toptal $50K+  ·  Upwork 100% job success</text>
<text class="lab" x="520" y="56">languages</text><clipPath id="bar"><rect x="520" y="66" width="340" height="6" rx="3"/></clipPath><g clip-path="url(#bar)"><rect x="520.0" y="66" width="277.0" height="6" fill="#f4a7bb"/><rect x="797.0" y="66" width="47.1" height="6" fill="#b8a9e3"/><rect x="844.2" y="66" width="8.4" height="6" fill="#9fd8cb"/><rect x="852.6" y="66" width="5.4" height="6" fill="#ffd29d"/><rect x="858.0" y="66" width="2.0" height="6" fill="#d9d3e3"/></g><circle cx="523" cy="87" r="3" fill="#f4a7bb"/><text class="lg" x="530" y="91">Python 81%</text><circle cx="605.0" cy="87" r="3" fill="#b8a9e3"/><text class="lg" x="612.0" y="91">HTML 14%</text><circle cx="674.6" cy="87" r="3" fill="#9fd8cb"/><text class="lg" x="681.6" y="91">CSS 2%</text><circle cx="731.8000000000001" cy="87" r="3" fill="#ffd29d"/><text class="lg" x="738.8000000000001" y="91">JavaScript 2%</text><circle cx="832.4000000000001" cy="87" r="3" fill="#d9d3e3"/><text class="lg" x="839.4000000000001" y="91">Other 1%</text><text class="num" x="520" y="140">255</text><text class="lab" x="520" y="157">contributions since 2021</text><text class="num" x="695" y="140">2</text><text class="lab" x="695" y="157">days streak</text><text class="num" x="790" y="140">5</text><text class="lab" x="790" y="157">best · Feb 27</text>

<g class="world"><g transform="translate(200,0)"><path d="M0,258 Q1,246 0,236" stroke="#9fcfb4" stroke-width="2.5" fill="none" stroke-linecap="round"/><path d="M0,252 Q-9,246 -10,238 Q-2,242 0,250Z" fill="#b6dfc6"/><path d="M-7,228 Q-7,238 0,239 Q7,238 7,228 L4,232 L0,226 L-4,232Z" fill="#f4a7bb"/></g><g transform="translate(500,0)"><path d="M0,258 Q1,246 0,236" stroke="#9fcfb4" stroke-width="2.5" fill="none" stroke-linecap="round"/><path d="M0,252 Q-9,246 -10,238 Q-2,242 0,250Z" fill="#b6dfc6"/><path d="M-7,228 Q-7,238 0,239 Q7,238 7,228 L4,232 L0,226 L-4,232Z" fill="#b8a9e3"/></g><g transform="translate(800,0)"><path d="M0,258 Q1,246 0,236" stroke="#9fcfb4" stroke-width="2.5" fill="none" stroke-linecap="round"/><path d="M0,252 Q-9,246 -10,238 Q-2,242 0,250Z" fill="#b6dfc6"/><path d="M-7,228 Q-7,238 0,239 Q7,238 7,228 L4,232 L0,226 L-4,232Z" fill="#ffb4a2"/></g><g transform="translate(1100,0)"><path d="M0,258 Q1,246 0,236" stroke="#9fcfb4" stroke-width="2.5" fill="none" stroke-linecap="round"/><path d="M0,252 Q-9,246 -10,238 Q-2,242 0,250Z" fill="#b6dfc6"/><path d="M-7,228 Q-7,238 0,239 Q7,238 7,228 L4,232 L0,226 L-4,232Z" fill="#f4a7bb"/></g><g transform="translate(1400,0)"><path d="M0,258 Q1,246 0,236" stroke="#9fcfb4" stroke-width="2.5" fill="none" stroke-linecap="round"/><path d="M0,252 Q-9,246 -10,238 Q-2,242 0,250Z" fill="#b6dfc6"/><path d="M-7,228 Q-7,238 0,239 Q7,238 7,228 L4,232 L0,226 L-4,232Z" fill="#b8a9e3"/></g><g transform="translate(1700,0)"><path d="M0,258 Q1,246 0,236" stroke="#9fcfb4" stroke-width="2.5" fill="none" stroke-linecap="round"/><path d="M0,252 Q-9,246 -10,238 Q-2,242 0,250Z" fill="#b6dfc6"/><path d="M-7,228 Q-7,238 0,239 Q7,238 7,228 L4,232 L0,226 L-4,232Z" fill="#ffb4a2"/></g></g>
<g class="float" style="animation-delay:0s"><path transform="translate(160,178) scale(1)" fill="#f4a7bb" d="M0,3 C0,-1 5,-1 5,3 C5,-1 10,-1 10,3 C10,7 5,9 5,11 C5,9 0,7 0,3Z"/></g><g class="float" style="animation-delay:1.5s"><path transform="translate(172,178) scale(0.8)" fill="#e89bb5" d="M0,3 C0,-1 5,-1 5,3 C5,-1 10,-1 10,3 C10,7 5,9 5,11 C5,9 0,7 0,3Z"/></g><g class="float" style="animation-delay:3s"><path transform="translate(150,178) scale(0.9)" fill="#f7b9c9" d="M0,3 C0,-1 5,-1 5,3 C5,-1 10,-1 10,3 C10,7 5,9 5,11 C5,9 0,7 0,3Z"/></g>
<g transform="translate(96,186)"><g class="jumper">
<g class="dino"><rect x="40" y="0" width="32" height="4"/><rect x="36" y="4" width="8" height="4"/><rect x="48" y="4" width="24" height="4"/><rect x="36" y="8" width="36" height="4"/><rect x="36" y="12" width="8" height="4"/><rect x="52" y="12" width="20" height="4"/><rect x="36" y="16" width="20" height="4"/><rect x="36" y="20" width="28" height="4"/><rect x="0" y="24" width="4" height="4"/><rect x="32" y="24" width="20" height="4"/><rect x="0" y="28" width="4" height="4"/><rect x="24" y="28" width="28" height="4"/><rect x="0" y="32" width="8" height="4"/><rect x="20" y="32" width="40" height="4"/><rect x="0" y="36" width="12" height="4"/><rect x="16" y="36" width="36" height="4"/><rect x="56" y="36" width="4" height="4"/><rect x="0" y="40" width="56" height="4"/><rect x="4" y="44" width="48" height="4"/><rect x="8" y="48" width="40" height="4"/><rect x="12" y="52" width="32" height="4"/><rect x="16" y="56" width="24" height="4"/><g class="legA"><rect x="16" y="60" width="8" height="4"/><rect x="36" y="60" width="8" height="4"/><rect x="16" y="64" width="4" height="4"/><rect x="40" y="64" width="4" height="4"/><rect x="16" y="68" width="8" height="4"/><rect x="40" y="68" width="8" height="4"/></g><g class="legB"><rect x="16" y="60" width="8" height="4"/><rect x="28" y="60" width="8" height="4"/><rect x="16" y="64" width="4" height="4"/><rect x="36" y="64" width="4" height="4"/><rect x="16" y="68" width="8" height="4"/><rect x="36" y="68" width="8" height="4"/></g></g>
<g class="blush"><rect x="44" y="12" width="8" height="4"/></g>
</g></g>
</g>
</svg>
